<svg width="75" height="102" viewBox="0 0 75 102" fill="none" xmlns="http://www.w3.org/2000/svg">
  <path
    d="M37.4932 0C16.7884 0 0 18.1825 0 40.6104C0 74.3666 37.4932 102 37.4932 102C37.4932 102 74.9864 72.3338 74.9864 40.6074C74.9864 18.1795 58.198 0 37.4932 0ZM37.4932 59.9663C27.6177 59.9663 19.616 51.2987 19.616 40.6074C19.616 29.9161 27.6177 21.2485 37.4932 21.2485C47.3631 21.2454 55.3648 29.9191 55.3648 40.6104C55.362 51.3017 47.3631 59.9663 37.4932 59.9663Z"
    fill="#49484C" />
  <circle cx="38" cy="42" r="23" fill="white" />
  <path
    d="M40.7736 54.9098V40.2137H28.1819L47.7197 33.9528V47.9744L40.7736 54.9098ZM33.0411 33.2784H45.6328L27.083 39.2273L33.0411 33.2784ZM32.5169 32L23 41.4921H39.4932V58L49 48.5079V32H32.5169Z"
    fill="#49484C" />
</svg>